<svg aria-hidden="true" style="position: absolute; width: 0; height: 0; overflow: hidden;" version="1.1" xmlns="http://www.w3.org/2000/svg" xmlns:xlink="http://www.w3.org/1999/xlink">
<defs>
<symbol id="chevron-right" viewBox="0 0 32 32">
<path  stroke-linejoin="round" stroke-linecap="round" stroke-miterlimit="4" stroke-width="4" d="M12.008 24.016l8.005-8.005-8.005-8.005"></path>
</symbol>
<symbol id="discount" viewBox="0 0 32 32">
<path   d="M16.005 30.342c-0.84 0-1.627-0.32-2.214-0.92l-2.027-2.027c-0.16-0.16-0.587-0.333-0.8-0.333h-2.881c-1.734 0-3.134-1.4-3.134-3.134v-2.881c0-0.213-0.173-0.64-0.333-0.8l-2.027-2.027c-0.587-0.587-0.92-1.374-0.92-2.214s0.32-1.627 0.92-2.214l2.027-2.027c0.16-0.16 0.333-0.587 0.333-0.8v-2.881c0-1.734 1.4-3.134 3.134-3.134h2.881c0.213 0 0.64-0.173 0.8-0.333l2.027-2.027c1.174-1.174 3.254-1.174 4.428 0l2.027 2.027c0.16 0.16 0.587 0.333 0.8 0.333h2.881c1.734 0 3.134 1.4 3.134 3.134v2.881c0 0.213 0.173 0.64 0.333 0.8l2.027 2.027c0.587 0.587 0.92 1.374 0.92 2.214s-0.32 1.627-0.92 2.214l-2.027 2.027c-0.16 0.16-0.333 0.587-0.333 0.8v2.881c0 1.734-1.4 3.134-3.134 3.134h-2.881c-0.213 0-0.64 0.173-0.8 0.333l-2.027 2.027c-0.587 0.6-1.374 0.92-2.214 0.92zM6.028 18.832c0.534 0.534 0.92 1.467 0.92 2.214v2.881c0 0.627 0.507 1.134 1.134 1.134h2.881c0.747 0 1.681 0.387 2.214 0.92l2.027 2.027c0.427 0.427 1.174 0.427 1.6 0l2.027-2.027c0.534-0.534 1.467-0.92 2.214-0.92h2.881c0.627 0 1.134-0.507 1.134-1.134v-2.881c0-0.747 0.387-1.68 0.92-2.214l2.027-2.027c0.206-0.203 0.333-0.485 0.333-0.797 0-0.001 0-0.002 0-0.003v0c0-0.001 0-0.002 0-0.003 0-0.312-0.128-0.594-0.333-0.797l-2.027-2.027c-0.534-0.534-0.92-1.467-0.92-2.214v-2.881c0-0.626-0.508-1.134-1.134-1.134v0h-2.881c-0.747 0-1.68-0.387-2.214-0.92l-2.027-2.027c-0.208-0.198-0.49-0.32-0.8-0.32s-0.592 0.122-0.801 0.321l0-0-2.027 2.027c-0.534 0.534-1.467 0.92-2.214 0.92h-2.881c-0.626 0-1.134 0.508-1.134 1.134v0 2.881c0 0.747-0.387 1.681-0.92 2.214l-2.027 2.027c-0.206 0.203-0.333 0.485-0.333 0.797 0 0.001 0 0.002 0 0.003v-0c0 0.307 0.12 0.587 0.333 0.8l2.027 2.027z"></path>
<path   d="M20.006 21.34c-0.747 0-1.347-0.6-1.347-1.334s0.6-1.334 1.334-1.334 1.334 0.6 1.334 1.334-0.587 1.334-1.32 1.334zM12.017 13.337c-0.747 0-1.347-0.6-1.347-1.334s0.6-1.334 1.334-1.334 1.334 0.6 1.334 1.334-0.587 1.334-1.32 1.334zM12.003 21.006c-0.253 0-0.507-0.093-0.707-0.293-0.179-0.182-0.29-0.431-0.29-0.707s0.111-0.525 0.29-0.707l8.002-8.002c0.387-0.387 1.027-0.387 1.414 0s0.387 1.027 0 1.414l-8.002 8.002c-0.2 0.2-0.453 0.293-0.707 0.293z"></path>
</symbol>
<symbol id="key" viewBox="0 0 32 32">
<path   stroke-linejoin="round" stroke-linecap="round" stroke-miterlimit="4" stroke-width="2" d="M12.003 29.342h8.002c6.669 0 9.336-2.667 9.336-9.336v-8.002c0-6.669-2.667-9.336-9.336-9.336h-8.002c-6.669 0-9.336 2.667-9.336 9.336v8.002c0 6.669 2.667 9.336 9.336 9.336z"></path>
<path  stroke-linejoin="round" stroke-linecap="round" stroke-miterlimit="10" stroke-width="2" d="M21.713 18.152c-1.002 1.005-2.387 1.628-3.919 1.628-0.591 0-1.161-0.093-1.696-0.265l0.039 0.011-3.454 3.441c-0.24 0.253-0.734 0.413-1.094 0.36l-1.6-0.213c-0.534-0.067-1.014-0.573-1.094-1.094l-0.213-1.6c-0.053-0.347 0.12-0.84 0.36-1.094l3.441-3.441c-0.587-1.907-0.133-4.068 1.374-5.575 2.161-2.161 5.682-2.161 7.856 0 2.161 2.147 2.161 5.668 0 7.842zM13.937 21.713l-1.134-1.147"></path>
<path   stroke-linejoin="round" stroke-linecap="round" stroke-miterlimit="4" stroke-width="2.6667" d="M17.865 14.271h0.011"></path>
</symbol>
<symbol id="logo" viewBox="0 0 32 32">
<path d="M16.002 30.176c-0.893 0-1.8-0.201-2.507-0.614l-7.335-4.227c-2.986-2.014-3.173-2.32-3.173-5.48v-7.707c0-3.161 0.173-3.468 3.107-5.454l7.387-4.267c1.401-0.813 3.601-0.813 5.001 0l7.361 4.24c2.987 2.014 3.174 2.32 3.174 5.48v7.695c0 3.16-0.173 3.467-3.107 5.454l-7.387 4.267c-0.721 0.413-1.626 0.614-2.52 0.614zM16.002 3.827c-0.56 0-1.107 0.107-1.493 0.334l-7.335 4.24c-2.173 1.467-2.173 1.467-2.173 3.747v7.695c0 2.28 0 2.28 2.226 3.787l7.281 4.2c0.787 0.453 2.213 0.453 3 0l7.335-4.24c2.16-1.467 2.16-1.467 2.16-3.747v-7.695c0-2.28 0-2.28-2.227-3.787l-7.28-4.2c-0.387-0.227-0.934-0.334-1.494-0.334z"></path>
<path d="M16.002 21.002c-2.761-0.001-4.999-2.239-5-5v-0c0.001-2.761 2.239-4.999 5-5h0c2.761 0.001 4.999 2.239 5 5v0c-0.001 2.761-2.239 4.999-5 5h-0zM16.002 13.001c-1.656 0.002-2.998 1.344-3.001 3v0c0.002 1.656 1.344 2.998 3 3h0c1.656-0.002 2.998-1.344 3-3v-0c-0.002-1.656-1.344-2.998-3-3.001h-0z"></path>
</symbol>
<symbol id="message-question" viewBox="0 0 32 32">
<path   d="M10.67 29.769c-0.373 0-0.76-0.093-1.107-0.28-0.76-0.4-1.227-1.2-1.227-2.054v-1.894c-4.028-0.413-6.669-3.374-6.669-7.616v-8.002c0-4.588 3.081-7.669 7.669-7.669h13.337c4.588 0 7.669 3.081 7.669 7.669v8.002c0 4.588-3.081 7.669-7.669 7.669h-5.028l-5.682 3.788c-0.387 0.253-0.84 0.387-1.294 0.387zM9.336 4.241c-3.441 0-5.668 2.227-5.668 5.668v8.002c0 3.441 2.227 5.668 5.668 5.668 0.547 0 1 0.453 1 1v2.841c0 0.173 0.107 0.253 0.173 0.293s0.2 0.080 0.347-0.013l5.935-3.948c0.16-0.107 0.36-0.173 0.56-0.173h5.335c3.441 0 5.668-2.227 5.668-5.668v-8.002c0-3.441-2.227-5.668-5.668-5.668h-13.351z"></path>
<path   d="M16.005 16.151c-0.547 0-1-0.453-1-1v-0.28c0-1.547 1.134-2.307 1.56-2.601 0.493-0.333 0.654-0.56 0.654-0.907 0-0.667-0.547-1.214-1.214-1.214s-1.214 0.547-1.214 1.214c0 0.547-0.453 1-1 1s-1-0.453-1-1c0-1.774 1.44-3.214 3.214-3.214s3.214 1.44 3.214 3.214c0 1.52-1.12 2.281-1.534 2.561-0.52 0.347-0.68 0.573-0.68 0.947v0.28c0 0.56-0.453 1-1 1zM16.005 19.472c-0 0-0.001 0-0.001 0-0.552 0-0.999-0.447-0.999-0.999s0.447-0.998 0.998-0.999h0c0 0 0.001 0 0.001 0 0.552 0 0.999 0.447 0.999 0.999s-0.447 0.998-0.998 0.999h-0z"></path>
</symbol>
<symbol id="search" viewBox="0 0 32 32">
<path  stroke-linejoin="round" stroke-linecap="round" stroke-miterlimit="4" stroke-width="2.6667" d="M14.671 25.341c5.893 0 10.67-4.777 10.67-10.67s-4.777-10.67-10.67-10.67v0c-5.893 0-10.67 4.777-10.67 10.67s4.777 10.67 10.67 10.67v0zM28.008 28.008l-5.802-5.802"></path>
</symbol>
<symbol id="square" viewBox="0 0 32 32">
<path   d="M20.006 30.342h-8.002c-7.242 0-10.336-3.094-10.336-10.336v-8.002c0-7.242 3.094-10.336 10.336-10.336h8.002c7.242 0 10.336 3.094 10.336 10.336v8.002c0 7.242-3.094 10.336-10.336 10.336zM12.003 3.668c-6.148 0-8.336 2.187-8.336 8.336v8.002c0 6.148 2.187 8.336 8.336 8.336h8.002c6.148 0 8.336-2.187 8.336-8.336v-8.002c0-6.148-2.187-8.336-8.336-8.336h-8.002z"></path>
<path   d="M16.005 17.445c-0.173 0-0.347-0.040-0.507-0.133l-7.069-4.081c-0.299-0.174-0.497-0.493-0.497-0.858 0-0.185 0.051-0.358 0.139-0.507l-0.002 0.005c0.28-0.48 0.894-0.64 1.36-0.36l6.562 3.801 6.522-3.774c0.48-0.28 1.094-0.107 1.36 0.36s0.107 1.094-0.36 1.36l-7.015 4.055c-0.147 0.080-0.32 0.133-0.493 0.133z"></path>
<path   d="M16.005 24.7c-0.547 0-1-0.453-1-1v-7.255c0-0.547 0.453-1 1-1s1 0.453 1 1v7.255c0 0.547-0.453 1-1 1z"></path>
<path   d="M16.005 25.007c-0.774 0-1.534-0.173-2.147-0.507l-4.268-2.374c-1.28-0.707-2.267-2.401-2.267-3.868v-4.521c0-1.454 1-3.148 2.267-3.868l4.268-2.374c1.227-0.68 3.068-0.68 4.295 0l4.268 2.374c1.28 0.707 2.267 2.401 2.267 3.868v4.521c0 1.454-1 3.148-2.267 3.868l-4.268 2.374c-0.613 0.347-1.374 0.507-2.147 0.507zM16.005 9.003c-0.44 0-0.867 0.080-1.174 0.253l-4.268 2.374c-0.654 0.36-1.24 1.374-1.24 2.107v4.521c0 0.747 0.587 1.747 1.24 2.107l4.268 2.374c0.614 0.347 1.734 0.347 2.347 0l4.268-2.374c0.654-0.36 1.24-1.374 1.24-2.107v-4.521c0-0.747-0.587-1.747-1.24-2.107l-4.268-2.374c-0.307-0.173-0.734-0.253-1.174-0.253z"></path>
</symbol>
<symbol id="user" viewBox="0 0 32 32">
  <path  d="M20.006 30.342h-8.002c-1.761 0-3.228-0.173-4.468-0.547-0.422-0.133-0.722-0.52-0.722-0.978 0-0.022 0.001-0.044 0.002-0.066l-0 0.003c0.333-3.988 4.375-7.122 9.189-7.122s8.843 3.121 9.189 7.122c0.040 0.48-0.253 0.907-0.72 1.040-1.24 0.373-2.707 0.547-4.468 0.547zM8.963 28.088c0.88 0.173 1.881 0.253 3.041 0.253h8.002c1.16 0 2.161-0.080 3.041-0.253-0.707-2.561-3.628-4.455-7.042-4.455s-6.335 1.894-7.042 4.455z"></path>
  <path    stroke-linejoin="round" stroke-linecap="round" stroke-miterlimit="4" stroke-width="2" d="M20.006 2.667h-8.002c-6.669 0-9.336 2.667-9.336 9.336v8.002c0 5.041 1.52 7.802 5.148 8.829 0.293-3.468 3.854-6.202 8.189-6.202s7.896 2.734 8.189 6.202c3.628-1.027 5.148-3.788 5.148-8.829v-8.002c0-6.669-2.667-9.336-9.336-9.336zM16.005 18.899c-2.641 0-4.775-2.147-4.775-4.788s2.134-4.775 4.775-4.775 4.775 2.134 4.775 4.775-2.134 4.788-4.775 4.788z"></path>
  <path  d="M16.005 19.899c-3.191-0.008-5.775-2.596-5.775-5.788 0 0 0 0 0 0v0c0-3.188 2.587-5.775 5.775-5.775s5.775 2.587 5.775 5.775c0 0 0 0 0 0 0 3.192-2.584 5.781-5.774 5.788h-0.001zM16.005 10.336c-2.045 0.056-3.682 1.727-3.682 3.781s1.637 3.725 3.677 3.781l0.005 0c2.045-0.056 3.682-1.727 3.682-3.781s-1.637-3.725-3.677-3.781l-0.005-0z"></path>
</symbol>
<symbol id="wallet" viewBox="0 0 32 32">
<path    stroke-linejoin="round" stroke-linecap="round" stroke-miterlimit="4" stroke-width="2" d="M14.34 22.486v2.707c0 2.294-2.134 4.148-4.761 4.148s-4.775-1.854-4.775-4.148v-2.707c0 2.294 2.134 3.921 4.775 3.921 2.627 0 4.761-1.64 4.761-3.921z"></path>
<path    stroke-linejoin="round" stroke-linecap="round" stroke-miterlimit="4" stroke-width="2" d="M14.337 18.819c0 0.667-0.187 1.28-0.507 1.814-0.787 1.294-2.401 2.107-4.268 2.107s-3.481-0.827-4.268-2.107c-0.32-0.534-0.507-1.147-0.507-1.814 0-1.147 0.534-2.174 1.387-2.921 0.867-0.76 2.054-1.214 3.374-1.214s2.507 0.467 3.374 1.214c0.88 0.734 1.414 1.774 1.414 2.921z"></path>
<path    stroke-linejoin="round" stroke-linecap="round" stroke-miterlimit="4" stroke-width="2" d="M14.34 18.819v3.668c0 2.294-2.134 3.921-4.761 3.921s-4.775-1.64-4.775-3.921v-3.668c0-2.294 2.134-4.148 4.775-4.148 1.32 0 2.507 0.467 3.374 1.214 0.854 0.747 1.387 1.787 1.387 2.934zM29.342 14.631v2.747c0 0.734-0.587 1.334-1.334 1.36h-2.614c-1.44 0-2.761-1.054-2.881-2.494-0.080-0.84 0.24-1.627 0.8-2.174 0.493-0.507 1.174-0.8 1.921-0.8h2.774c0.747 0.027 1.334 0.627 1.334 1.36z"></path>
<path    stroke-linejoin="round" stroke-linecap="round" stroke-miterlimit="4" stroke-width="2" d="M2.667 14.004v-2.667c0-3.628 2.187-6.162 5.588-6.589 0.347-0.053 0.707-0.080 1.080-0.080h12.003c0.347 0 0.68 0.013 1 0.067 3.441 0.4 5.668 2.948 5.668 6.602v1.934h-2.774c-0.747 0-1.427 0.293-1.921 0.8-0.56 0.547-0.88 1.334-0.8 2.174 0.12 1.44 1.44 2.494 2.881 2.494h2.614v1.934c0 4.001-2.667 6.669-6.669 6.669h-3.334"></path>
</symbol>
<symbol id="kit" viewBox="0 0 32 32">
<path d="M28 8h-6v-4c0-1.1-0.9-2-2-2h-8c-1.1 0-2 0.9-2 2v4h-6c-2.2 0-4 1.8-4 4v16c0 2.2 1.8 4 4 4h24c2.2 0 4-1.8 4-4v-16c0-2.2-1.8-4-4-4zM12 4h8v4h-8v-4zM24 22h-6v6h-4v-6h-6v-4h6v-6h4v6h6v4z"></path>
</symbol>
<symbol id="bug" viewBox="0 0 32 32">
<path d="M32 18v-2h-6.040c-0.183-2.271-0.993-4.345-2.24-6.008h5.061l2.189-8.758-1.94-0.485-1.811 7.242h-5.459c-0.028-0.022-0.056-0.043-0.084-0.064 0.21-0.609 0.324-1.263 0.324-1.944 0-3.305-2.686-5.984-6-5.984s-6 2.679-6 5.984c0 0.68 0.114 1.334 0.324 1.944-0.028 0.021-0.056 0.043-0.084 0.064h-5.459l-1.811-7.242-1.94 0.485 2.189 8.758h5.061c-1.246 1.663-2.056 3.736-2.24 6.008h-6.040v2h6.043c0.119 1.427 0.485 2.775 1.051 3.992h-3.875l-2.189 8.757 1.94 0.485 1.811-7.243h3.511c1.834 2.439 4.606 3.992 7.708 3.992s5.874-1.554 7.708-3.992h3.511l1.811 7.243 1.94-0.485-2.189-8.757h-3.875c0.567-1.217 0.932-2.565 1.051-3.992h6.043z"></path>
</symbol>
<symbol id="mug" viewBox="0 0 32 32">
<path d="M30 10h-6v-3c0-2.761-5.373-5-12-5s-12 2.239-12 5v20c0 2.761 5.373 5 12 5s12-2.239 12-5v-3h6c1.105 0 2-0.895 2-2v-10c0-1.105-0.895-2-2-2zM5.502 8.075c-1.156-0.381-1.857-0.789-2.232-1.075 0.375-0.286 1.075-0.694 2.232-1.075 1.811-0.597 4.118-0.925 6.498-0.925s4.688 0.329 6.498 0.925c1.156 0.381 1.857 0.789 2.232 1.075-0.375 0.286-1.076 0.694-2.232 1.075-1.811 0.597-4.118 0.925-6.498 0.925s-4.688-0.329-6.498-0.925zM28 20h-4v-6h4v6z"></path>
</symbol>
<symbol id="leaf" viewBox="0 0 32 32">
<path d="M31.604 4.203c-3.461-2.623-8.787-4.189-14.247-4.189-6.754 0-12.257 2.358-15.099 6.469-1.335 1.931-2.073 4.217-2.194 6.796-0.108 2.296 0.278 4.835 1.146 7.567 2.965-8.887 11.244-15.847 20.79-15.847 0 0-8.932 2.351-14.548 9.631-0.003 0.004-0.078 0.097-0.207 0.272-1.128 1.509-2.111 3.224-2.846 5.166-1.246 2.963-2.4 7.030-2.4 11.931h4c0 0-0.607-3.819 0.449-8.212 1.747 0.236 3.308 0.353 4.714 0.353 3.677 0 6.293-0.796 8.231-2.504 1.736-1.531 2.694-3.587 3.707-5.764 1.548-3.325 3.302-7.094 8.395-10.005 0.292-0.167 0.48-0.468 0.502-0.804s-0.126-0.659-0.394-0.862z"></path>
</symbol>
<symbol id="rocket" viewBox="0 0 32 32">
<path d="M22 2l-10 10h-6l-6 8c0 0 6.357-1.77 10.065-0.94l-10.065 12.94 13.184-10.255c1.839 4.208-1.184 10.255-1.184 10.255l8-6v-6l10-10 2-10-10 2z"></path>
</symbol>
<symbol id="lab" viewBox="0 0 32 32">
<path d="M29.884 25.14l-9.884-16.47v-6.671h1c0.55 0 1-0.45 1-1s-0.45-1-1-1h-10c-0.55 0-1 0.45-1 1s0.45 1 1 1h1v6.671l-9.884 16.47c-2.264 3.773-0.516 6.86 3.884 6.86h20c4.4 0 6.148-3.087 3.884-6.86zM7.532 20l6.468-10.779v-7.221h4v7.221l6.468 10.779h-16.935z"></path>
</symbol>
<symbol id="airplane" viewBox="0 0 32 32">
<path d="M24 19.999l-5.713-5.713 13.713-10.286-4-4-17.141 6.858-5.397-5.397c-1.556-1.556-3.728-1.928-4.828-0.828s-0.727 3.273 0.828 4.828l5.396 5.396-6.858 17.143 4 4 10.287-13.715 5.713 5.713v7.999h4l2-6 6-2v-4l-7.999 0z"></path>
</symbol>
<symbol id="menu" viewBox="0 0 32 32">
<path d="M2 6h28v6h-28zM2 14h28v6h-28zM2 22h28v6h-28z"></path>
</symbol>
<symbol id="cross" viewBox="0 0 32 32">
<path d="M31.708 25.708c-0-0-0-0-0-0l-9.708-9.708 9.708-9.708c0-0 0-0 0-0 0.105-0.105 0.18-0.227 0.229-0.357 0.133-0.356 0.057-0.771-0.229-1.057l-4.586-4.586c-0.286-0.286-0.702-0.361-1.057-0.229-0.13 0.048-0.252 0.124-0.357 0.228 0 0-0 0-0 0l-9.708 9.708-9.708-9.708c-0-0-0-0-0-0-0.105-0.104-0.227-0.18-0.357-0.228-0.356-0.133-0.771-0.057-1.057 0.229l-4.586 4.586c-0.286 0.286-0.361 0.702-0.229 1.057 0.049 0.13 0.124 0.252 0.229 0.357 0 0 0 0 0 0l9.708 9.708-9.708 9.708c-0 0-0 0-0 0-0.104 0.105-0.18 0.227-0.229 0.357-0.133 0.355-0.057 0.771 0.229 1.057l4.586 4.586c0.286 0.286 0.702 0.361 1.057 0.229 0.13-0.049 0.252-0.124 0.357-0.229 0-0 0-0 0-0l9.708-9.708 9.708 9.708c0 0 0 0 0 0 0.105 0.105 0.227 0.18 0.357 0.229 0.356 0.133 0.771 0.057 1.057-0.229l4.586-4.586c0.286-0.286 0.362-0.702 0.229-1.057-0.049-0.13-0.124-0.252-0.229-0.357z"></path>
</symbol>
</defs>
</svg>